<svg id="Layer_1" data-name="Layer 1" xmlns="http://www.w3.org/2000/svg" viewBox="0 0 480.96 228.53"><defs><style>.cls-1,.cls-2{fill:#122029;}.cls-1{stroke:#fff;stroke-width:2px;}.cls-1,.cls-3,.cls-4,.cls-6,.cls-7{stroke-miterlimit:10;}.cls-3{fill:#fff;}.cls-3,.cls-4,.cls-5{stroke:#122029;}.cls-4,.cls-5,.cls-6,.cls-7{fill:none;}.cls-5{stroke-linecap:round;stroke-linejoin:round;}.cls-6,.cls-7{stroke:#f0b90b;}.cls-7{stroke-dasharray:12.03 12.03;}</style></defs><path class="cls-1" d="M230.21,300.73C162.29,365.61,158.72,456.25,160,489.86a28.79,28.79,0,0,0,15.23,24.46c6.53,3.44,14.79,5.68,23.64,2.91,20.57-6.43,34.07-50.79,22.5-58.5-7.1-4.73-16.85-11.15-23.33-15.41a11.66,11.66,0,0,1-4.89-12.65c3.61-14.12,11.78-43.13,21.28-58.59a14.5,14.5,0,0,1,18.74-5.41L242,371a21,21,0,0,0,27.89-9.1c7.48-14.35,15.66-34.34,11.92-47.81a29.67,29.67,0,0,0-5.77-11C264.5,289.12,243.28,288.23,230.21,300.73Z" transform="translate(-158.81 -290.94)"/><rect class="cls-2" x="401.74" y="3.7" width="37.77" height="2.73" rx="1.37"/><rect class="cls-3" x="358.96" y="1" width="121.5" height="226.53" rx="5.77"/><rect class="cls-2" x="362.21" y="8.78" width="114.99" height="204" rx="4.64"/><circle class="cls-3" cx="419.71" cy="219.8" r="3.21"/><line class="cls-4" x1="379.53" y1="219.8" x2="388.31" y2="219.8"/><line class="cls-4" x1="379.53" y1="222.11" x2="388.31" y2="222.11"/><line class="cls-4" x1="379.53" y1="217.5" x2="388.31" y2="217.5"/><line class="cls-5" x1="460.93" y1="217.07" x2="465.18" y2="219.74"/><line class="cls-5" x1="465.18" y1="219.8" x2="461.63" y2="223.2"/><rect class="cls-2" x="403.47" y="3.59" width="32.46" height="2.89" rx="1.45"/><line class="cls-6" x1="123.92" y1="114.26" x2="129.92" y2="114.26"/><line class="cls-7" x1="141.95" y1="114.26" x2="328.46" y2="114.26"/><line class="cls-6" x1="334.47" y1="114.26" x2="340.47" y2="114.26"/></svg>