<svg id="Layer_1" data-name="Layer 1" xmlns="http://www.w3.org/2000/svg" viewBox="0 0 388.29 145.42"><defs><style>.cls-1{fill:#aaceff;opacity:0.35;}</style></defs><circle class="cls-1" cx="2.85" cy="2.85" r="2.85"/><circle class="cls-1" cx="2.85" cy="20.32" r="2.85"/><circle class="cls-1" cx="2.85" cy="37.78" r="2.85"/><circle class="cls-1" cx="2.85" cy="55.25" r="2.85"/><circle class="cls-1" cx="2.85" cy="72.71" r="2.85"/><circle class="cls-1" cx="2.85" cy="90.17" r="2.85"/><circle class="cls-1" cx="2.85" cy="107.64" r="2.85"/><circle class="cls-1" cx="2.85" cy="125.1" r="2.85"/><circle class="cls-1" cx="2.85" cy="142.57" r="2.85"/><circle class="cls-1" cx="24.11" cy="2.85" r="2.85"/><circle class="cls-1" cx="24.11" cy="20.32" r="2.85"/><circle class="cls-1" cx="24.11" cy="37.78" r="2.85"/><circle class="cls-1" cx="24.11" cy="55.25" r="2.85"/><circle class="cls-1" cx="24.11" cy="72.71" r="2.85"/><circle class="cls-1" cx="24.11" cy="90.17" r="2.85"/><circle class="cls-1" cx="24.11" cy="107.64" r="2.85"/><circle class="cls-1" cx="24.11" cy="125.1" r="2.85"/><circle class="cls-1" cx="24.11" cy="142.57" r="2.85"/><circle class="cls-1" cx="45.36" cy="2.85" r="2.85"/><circle class="cls-1" cx="45.36" cy="20.32" r="2.85"/><circle class="cls-1" cx="45.36" cy="37.78" r="2.85"/><circle class="cls-1" cx="45.36" cy="55.25" r="2.85"/><circle class="cls-1" cx="45.36" cy="72.71" r="2.85"/><circle class="cls-1" cx="45.36" cy="90.17" r="2.85"/><circle class="cls-1" cx="45.36" cy="107.64" r="2.85"/><circle class="cls-1" cx="45.36" cy="125.1" r="2.85"/><circle class="cls-1" cx="45.36" cy="142.57" r="2.85"/><circle class="cls-1" cx="66.62" cy="2.85" r="2.85"/><circle class="cls-1" cx="66.62" cy="20.32" r="2.85"/><circle class="cls-1" cx="66.62" cy="37.78" r="2.85"/><circle class="cls-1" cx="66.62" cy="55.25" r="2.85"/><circle class="cls-1" cx="66.62" cy="72.71" r="2.85"/><circle class="cls-1" cx="66.62" cy="90.17" r="2.85"/><circle class="cls-1" cx="66.62" cy="107.64" r="2.85"/><circle class="cls-1" cx="66.62" cy="125.1" r="2.85"/><circle class="cls-1" cx="66.62" cy="142.57" r="2.85"/><circle class="cls-1" cx="87.87" cy="2.85" r="2.85"/><circle class="cls-1" cx="87.87" cy="20.32" r="2.85"/><circle class="cls-1" cx="87.87" cy="37.78" r="2.85"/><circle class="cls-1" cx="87.87" cy="55.25" r="2.85"/><circle class="cls-1" cx="87.87" cy="72.71" r="2.85"/><circle class="cls-1" cx="87.87" cy="90.17" r="2.85"/><circle class="cls-1" cx="87.87" cy="107.64" r="2.85"/><circle class="cls-1" cx="87.87" cy="125.1" r="2.85"/><circle class="cls-1" cx="87.87" cy="142.57" r="2.85"/><circle class="cls-1" cx="109.13" cy="2.85" r="2.85"/><circle class="cls-1" cx="109.13" cy="20.32" r="2.85"/><circle class="cls-1" cx="109.13" cy="37.78" r="2.85"/><circle class="cls-1" cx="109.13" cy="55.25" r="2.85"/><circle class="cls-1" cx="109.13" cy="72.71" r="2.85"/><circle class="cls-1" cx="109.13" cy="90.17" r="2.85"/><circle class="cls-1" cx="109.13" cy="107.64" r="2.85"/><circle class="cls-1" cx="109.13" cy="125.1" r="2.85"/><circle class="cls-1" cx="109.13" cy="142.57" r="2.85"/><circle class="cls-1" cx="130.38" cy="2.85" r="2.85"/><circle class="cls-1" cx="130.38" cy="20.32" r="2.85"/><circle class="cls-1" cx="130.38" cy="37.78" r="2.85"/><circle class="cls-1" cx="130.38" cy="55.25" r="2.85"/><circle class="cls-1" cx="130.38" cy="72.71" r="2.85"/><circle class="cls-1" cx="130.38" cy="90.17" r="2.85"/><circle class="cls-1" cx="130.38" cy="107.64" r="2.85"/><circle class="cls-1" cx="130.38" cy="125.1" r="2.85"/><circle class="cls-1" cx="130.38" cy="142.57" r="2.85"/><circle class="cls-1" cx="151.63" cy="2.85" r="2.85"/><circle class="cls-1" cx="151.63" cy="20.32" r="2.85"/><circle class="cls-1" cx="151.63" cy="37.78" r="2.85"/><circle class="cls-1" cx="151.63" cy="55.25" r="2.85"/><circle class="cls-1" cx="151.63" cy="72.71" r="2.85"/><circle class="cls-1" cx="151.63" cy="90.17" r="2.85"/><circle class="cls-1" cx="151.63" cy="107.64" r="2.85"/><circle class="cls-1" cx="151.63" cy="125.1" r="2.85"/><circle class="cls-1" cx="151.63" cy="142.57" r="2.85"/><circle class="cls-1" cx="172.89" cy="2.85" r="2.85"/><circle class="cls-1" cx="172.89" cy="20.32" r="2.85"/><circle class="cls-1" cx="172.89" cy="37.78" r="2.85"/><circle class="cls-1" cx="172.89" cy="55.25" r="2.85"/><circle class="cls-1" cx="172.89" cy="72.71" r="2.85"/><circle class="cls-1" cx="172.89" cy="90.17" r="2.85"/><circle class="cls-1" cx="172.89" cy="107.64" r="2.85"/><circle class="cls-1" cx="172.89" cy="125.1" r="2.85"/><circle class="cls-1" cx="172.89" cy="142.57" r="2.85"/><circle class="cls-1" cx="194.14" cy="2.85" r="2.85"/><circle class="cls-1" cx="194.14" cy="20.32" r="2.85"/><circle class="cls-1" cx="194.14" cy="37.78" r="2.85"/><circle class="cls-1" cx="194.14" cy="55.25" r="2.85"/><circle class="cls-1" cx="194.14" cy="72.71" r="2.85"/><circle class="cls-1" cx="194.14" cy="90.17" r="2.85"/><circle class="cls-1" cx="194.14" cy="107.64" r="2.85"/><circle class="cls-1" cx="194.14" cy="125.1" r="2.85"/><circle class="cls-1" cx="194.14" cy="142.57" r="2.85"/><circle class="cls-1" cx="215.4" cy="2.85" r="2.85"/><circle class="cls-1" cx="215.4" cy="20.32" r="2.85"/><circle class="cls-1" cx="215.4" cy="37.78" r="2.85"/><circle class="cls-1" cx="215.4" cy="55.25" r="2.85"/><circle class="cls-1" cx="215.4" cy="72.71" r="2.85"/><circle class="cls-1" cx="215.4" cy="90.17" r="2.85"/><circle class="cls-1" cx="215.4" cy="107.64" r="2.85"/><circle class="cls-1" cx="215.4" cy="125.1" r="2.85"/><circle class="cls-1" cx="215.4" cy="142.57" r="2.85"/><circle class="cls-1" cx="236.65" cy="2.85" r="2.85"/><circle class="cls-1" cx="236.65" cy="20.32" r="2.85"/><circle class="cls-1" cx="236.65" cy="37.78" r="2.85"/><circle class="cls-1" cx="236.65" cy="55.25" r="2.85"/><circle class="cls-1" cx="236.65" cy="72.71" r="2.85"/><circle class="cls-1" cx="236.65" cy="90.17" r="2.85"/><circle class="cls-1" cx="236.65" cy="107.64" r="2.85"/><circle class="cls-1" cx="236.65" cy="125.1" r="2.85"/><circle class="cls-1" cx="236.65" cy="142.57" r="2.85"/><circle class="cls-1" cx="257.91" cy="2.85" r="2.85"/><circle class="cls-1" cx="257.91" cy="20.32" r="2.85"/><circle class="cls-1" cx="257.91" cy="37.78" r="2.85"/><circle class="cls-1" cx="257.91" cy="55.25" r="2.85"/><circle class="cls-1" cx="257.91" cy="72.71" r="2.85"/><circle class="cls-1" cx="257.91" cy="90.17" r="2.85"/><circle class="cls-1" cx="257.91" cy="107.64" r="2.85"/><circle class="cls-1" cx="257.91" cy="125.1" r="2.85"/><circle class="cls-1" cx="257.91" cy="142.57" r="2.85"/><circle class="cls-1" cx="279.16" cy="2.85" r="2.85"/><circle class="cls-1" cx="279.16" cy="20.32" r="2.85"/><circle class="cls-1" cx="279.16" cy="37.78" r="2.85"/><circle class="cls-1" cx="279.16" cy="55.25" r="2.85"/><circle class="cls-1" cx="279.16" cy="72.71" r="2.85"/><circle class="cls-1" cx="279.16" cy="90.17" r="2.85"/><circle class="cls-1" cx="279.16" cy="107.64" r="2.85"/><circle class="cls-1" cx="279.16" cy="125.1" r="2.85"/><circle class="cls-1" cx="279.16" cy="142.57" r="2.85"/><circle class="cls-1" cx="300.42" cy="2.85" r="2.85"/><circle class="cls-1" cx="300.42" cy="20.32" r="2.85"/><circle class="cls-1" cx="300.42" cy="37.78" r="2.85"/><circle class="cls-1" cx="300.42" cy="55.25" r="2.85"/><circle class="cls-1" cx="300.42" cy="72.71" r="2.85"/><circle class="cls-1" cx="300.42" cy="90.17" r="2.85"/><circle class="cls-1" cx="300.42" cy="107.64" r="2.85"/><circle class="cls-1" cx="300.42" cy="125.1" r="2.85"/><circle class="cls-1" cx="300.42" cy="142.57" r="2.85"/><circle class="cls-1" cx="321.67" cy="2.85" r="2.85"/><circle class="cls-1" cx="321.67" cy="20.32" r="2.85"/><circle class="cls-1" cx="321.67" cy="37.78" r="2.85"/><circle class="cls-1" cx="321.67" cy="55.25" r="2.85"/><circle class="cls-1" cx="321.67" cy="72.71" r="2.85"/><circle class="cls-1" cx="321.67" cy="90.17" r="2.85"/><circle class="cls-1" cx="321.67" cy="107.64" r="2.85"/><circle class="cls-1" cx="321.67" cy="125.1" r="2.85"/><circle class="cls-1" cx="321.67" cy="142.57" r="2.85"/><circle class="cls-1" cx="342.92" cy="2.85" r="2.85"/><circle class="cls-1" cx="342.92" cy="20.32" r="2.85"/><circle class="cls-1" cx="342.92" cy="37.78" r="2.85"/><circle class="cls-1" cx="342.92" cy="55.25" r="2.85"/><circle class="cls-1" cx="342.92" cy="72.71" r="2.85"/><circle class="cls-1" cx="342.92" cy="90.17" r="2.85"/><circle class="cls-1" cx="342.92" cy="107.64" r="2.85"/><circle class="cls-1" cx="342.92" cy="125.1" r="2.85"/><circle class="cls-1" cx="342.92" cy="142.57" r="2.85"/><circle class="cls-1" cx="364.18" cy="2.85" r="2.85"/><circle class="cls-1" cx="364.18" cy="20.32" r="2.85"/><circle class="cls-1" cx="364.18" cy="37.78" r="2.85"/><circle class="cls-1" cx="364.18" cy="55.25" r="2.85"/><circle class="cls-1" cx="364.18" cy="72.71" r="2.85"/><circle class="cls-1" cx="364.18" cy="90.17" r="2.85"/><circle class="cls-1" cx="364.18" cy="107.64" r="2.85"/><circle class="cls-1" cx="364.18" cy="125.1" r="2.85"/><circle class="cls-1" cx="364.18" cy="142.57" r="2.85"/><circle class="cls-1" cx="385.43" cy="2.85" r="2.85"/><circle class="cls-1" cx="385.43" cy="20.32" r="2.85"/><circle class="cls-1" cx="385.43" cy="37.78" r="2.85"/><circle class="cls-1" cx="385.43" cy="55.25" r="2.85"/><circle class="cls-1" cx="385.43" cy="72.71" r="2.85"/><circle class="cls-1" cx="385.43" cy="90.17" r="2.85"/><circle class="cls-1" cx="385.43" cy="107.64" r="2.85"/><circle class="cls-1" cx="385.43" cy="125.1" r="2.85"/><circle class="cls-1" cx="385.43" cy="142.57" r="2.85"/></svg>