<svg id="Layer_1" data-name="Layer 1" xmlns="http://www.w3.org/2000/svg" viewBox="0 0 521.69 569.29"><defs><style>.cls-1{fill:#4d92ec;}.cls-2{fill:none;stroke:#69ffa1;stroke-miterlimit:10;}.cls-3{fill:#2a7fdb;}</style></defs><path class="cls-1" d="M400,497c-144.07,0-260.85,32.85-260.85,73.39S255.93,643.72,400,643.72s260.85-32.86,260.85-73.38S544.07,497,400,497Zm-1.51,108.67c-105.07,0-190.25-24-190.25-53.53s85.18-53.52,190.25-53.52,190.27,24,190.27,53.52S503.58,605.62,398.49,605.62Z" transform="translate(-139.15 -74.43)"/><path class="cls-2" d="M400,725.57" transform="translate(-139.15 -74.43)"/><path class="cls-1" d="M400,74.43A171.5,171.5,0,0,0,247.34,323.92h0a0,0,0,0,0,0,0l0,.06L257,340.47,400,584.76,543,340.47,552.61,324l0,0v0a0,0,0,0,0,0,0h0A171.5,171.5,0,0,0,400,74.43Zm0,249.49a78.06,78.06,0,1,1,78.07-78.06A78.06,78.06,0,0,1,400,323.92Z" transform="translate(-139.15 -74.43)"/><path class="cls-3" d="M400,74.43V167.8a78.06,78.06,0,1,1,0,156.12V584.77l143-244.3L552.61,324l0,0h0a.08.08,0,0,0,0,0h0A171.5,171.5,0,0,0,400,74.43Z" transform="translate(-139.15 -74.43)"/></svg>